<mxfile host="app.diagrams.net" modified="2022-11-28T07:50:48.638Z" agent="5.0 (Windows NT 10.0; WOW64) AppleWebKit/537.36 (KHTML, like Gecko) Chrome/107.0.5304.107 Safari/537.36 NetHelper70" version="20.6.0" etag="fM1B3x0joPmlsYVxXTDX" type="github">
  <diagram id="4cDWArOsWDMcKGX4jPfF" name="페이지-1">
    <mxGraphModel dx="1422" dy="762" grid="1" gridSize="10" guides="1" tooltips="1" connect="1" arrows="1" fold="1" page="1" pageScale="1" pageWidth="827" pageHeight="1169" background="#114B5F" math="0" shadow="0">
      <root>
        <mxCell id="0" />
        <mxCell id="1" parent="0" />
        <mxCell id="_o2WhF-X_YRzCuWcC3-Q-2" value="MAC&lt;br style=&quot;font-size: 20px;&quot;&gt;(IoS, Android)" style="rounded=0;whiteSpace=wrap;html=1;fontSize=20;fillColor=#F45B69;strokeColor=#028090;fontColor=#E4FDE1;" vertex="1" parent="1">
          <mxGeometry x="95" y="140" width="130" height="50" as="geometry" />
        </mxCell>
        <mxCell id="_o2WhF-X_YRzCuWcC3-Q-5" value="Excutor" style="text;html=1;align=center;verticalAlign=middle;resizable=0;points=[];autosize=1;strokeColor=none;fillColor=none;fontSize=25;fontColor=#E4FDE1;" vertex="1" parent="1">
          <mxGeometry x="105" y="70" width="110" height="40" as="geometry" />
        </mxCell>
        <mxCell id="_o2WhF-X_YRzCuWcC3-Q-8" value="Scheduler" style="text;html=1;align=center;verticalAlign=middle;resizable=0;points=[];autosize=1;strokeColor=none;fillColor=none;fontSize=25;fontColor=#E4FDE1;" vertex="1" parent="1">
          <mxGeometry x="344" y="70" width="140" height="40" as="geometry" />
        </mxCell>
        <mxCell id="_o2WhF-X_YRzCuWcC3-Q-9" value="Linux" style="rounded=0;whiteSpace=wrap;html=1;fontSize=20;fillColor=#F45B69;strokeColor=#028090;fontColor=#E4FDE1;" vertex="1" parent="1">
          <mxGeometry x="95" y="220" width="130" height="50" as="geometry" />
        </mxCell>
        <mxCell id="_o2WhF-X_YRzCuWcC3-Q-10" value="Linux" style="rounded=0;whiteSpace=wrap;html=1;fontSize=20;fillColor=#F45B69;strokeColor=#028090;fontColor=#E4FDE1;" vertex="1" parent="1">
          <mxGeometry x="95" y="300" width="130" height="50" as="geometry" />
        </mxCell>
        <mxCell id="_o2WhF-X_YRzCuWcC3-Q-11" value="Linux" style="rounded=0;whiteSpace=wrap;html=1;fontSize=20;fillColor=#F45B69;strokeColor=#028090;fontColor=#E4FDE1;" vertex="1" parent="1">
          <mxGeometry x="95" y="380" width="130" height="50" as="geometry" />
        </mxCell>
        <mxCell id="_o2WhF-X_YRzCuWcC3-Q-12" value="Jenkins?&lt;br&gt;" style="rounded=0;whiteSpace=wrap;html=1;fontSize=20;fillColor=#F45B69;strokeColor=#028090;fontColor=#E4FDE1;" vertex="1" parent="1">
          <mxGeometry x="354" y="280" width="130" height="50" as="geometry" />
        </mxCell>
        <mxCell id="_o2WhF-X_YRzCuWcC3-Q-13" value="Manager" style="text;html=1;align=center;verticalAlign=middle;resizable=0;points=[];autosize=1;strokeColor=none;fillColor=none;fontSize=25;fontColor=#E4FDE1;" vertex="1" parent="1">
          <mxGeometry x="590" y="70" width="120" height="40" as="geometry" />
        </mxCell>
        <mxCell id="_o2WhF-X_YRzCuWcC3-Q-14" value="" style="endArrow=none;html=1;rounded=0;fontSize=25;exitX=1;exitY=0.5;exitDx=0;exitDy=0;labelBackgroundColor=#114B5F;strokeColor=#028090;fontColor=#E4FDE1;startArrow=none;" edge="1" parent="1" source="_o2WhF-X_YRzCuWcC3-Q-27" target="_o2WhF-X_YRzCuWcC3-Q-22">
          <mxGeometry width="50" height="50" relative="1" as="geometry">
            <mxPoint x="390" y="430" as="sourcePoint" />
            <mxPoint x="680" y="170" as="targetPoint" />
            <Array as="points">
              <mxPoint x="655" y="165" />
            </Array>
          </mxGeometry>
        </mxCell>
        <mxCell id="_o2WhF-X_YRzCuWcC3-Q-16" value="" style="endArrow=none;html=1;rounded=0;fontSize=25;exitX=1;exitY=0.5;exitDx=0;exitDy=0;entryX=0;entryY=0.5;entryDx=0;entryDy=0;labelBackgroundColor=#114B5F;strokeColor=#028090;fontColor=#E4FDE1;" edge="1" parent="1" target="_o2WhF-X_YRzCuWcC3-Q-12">
          <mxGeometry width="50" height="50" relative="1" as="geometry">
            <mxPoint x="225" y="240" as="sourcePoint" />
            <mxPoint x="330" y="270" as="targetPoint" />
          </mxGeometry>
        </mxCell>
        <mxCell id="_o2WhF-X_YRzCuWcC3-Q-17" value="" style="endArrow=none;html=1;rounded=0;fontSize=25;exitX=1;exitY=0.5;exitDx=0;exitDy=0;entryX=0;entryY=0.5;entryDx=0;entryDy=0;labelBackgroundColor=#114B5F;strokeColor=#028090;fontColor=#E4FDE1;" edge="1" parent="1" source="_o2WhF-X_YRzCuWcC3-Q-10" target="_o2WhF-X_YRzCuWcC3-Q-12">
          <mxGeometry width="50" height="50" relative="1" as="geometry">
            <mxPoint x="235" y="250" as="sourcePoint" />
            <mxPoint x="330" y="270" as="targetPoint" />
          </mxGeometry>
        </mxCell>
        <mxCell id="_o2WhF-X_YRzCuWcC3-Q-21" value="" style="endArrow=none;html=1;rounded=0;fontSize=25;exitX=1;exitY=0.5;exitDx=0;exitDy=0;entryX=0;entryY=0.5;entryDx=0;entryDy=0;labelBackgroundColor=#114B5F;strokeColor=#028090;fontColor=#E4FDE1;" edge="1" parent="1" source="_o2WhF-X_YRzCuWcC3-Q-11" target="_o2WhF-X_YRzCuWcC3-Q-12">
          <mxGeometry width="50" height="50" relative="1" as="geometry">
            <mxPoint x="235" y="175" as="sourcePoint" />
            <mxPoint x="340" y="285" as="targetPoint" />
          </mxGeometry>
        </mxCell>
        <mxCell id="_o2WhF-X_YRzCuWcC3-Q-22" value="GitLab" style="rounded=0;whiteSpace=wrap;html=1;fontSize=20;fillColor=#F45B69;strokeColor=#028090;fontColor=#E4FDE1;" vertex="1" parent="1">
          <mxGeometry x="590" y="280" width="130" height="50" as="geometry" />
        </mxCell>
        <mxCell id="_o2WhF-X_YRzCuWcC3-Q-23" value="" style="endArrow=none;html=1;rounded=0;fontSize=25;exitX=1;exitY=0.5;exitDx=0;exitDy=0;entryX=0;entryY=0.5;entryDx=0;entryDy=0;labelBackgroundColor=#114B5F;strokeColor=#028090;fontColor=#E4FDE1;" edge="1" parent="1" source="_o2WhF-X_YRzCuWcC3-Q-12" target="_o2WhF-X_YRzCuWcC3-Q-22">
          <mxGeometry width="50" height="50" relative="1" as="geometry">
            <mxPoint x="460" y="370" as="sourcePoint" />
            <mxPoint x="570" y="480" as="targetPoint" />
          </mxGeometry>
        </mxCell>
        <mxCell id="_o2WhF-X_YRzCuWcC3-Q-26" value="" style="shape=internalStorage;whiteSpace=wrap;html=1;backgroundOutline=1;labelBackgroundColor=none;fontSize=20;fillColor=#F45B69;strokeColor=#028090;dx=80;dy=40;fontColor=#E4FDE1;" vertex="1" parent="1">
          <mxGeometry x="80" y="480" width="670" height="220" as="geometry" />
        </mxCell>
        <mxCell id="_o2WhF-X_YRzCuWcC3-Q-27" value="Runner?" style="rounded=0;whiteSpace=wrap;html=1;fontSize=20;fillColor=#F45B69;strokeColor=#028090;fontColor=#E4FDE1;" vertex="1" parent="1">
          <mxGeometry x="354" y="140" width="130" height="50" as="geometry" />
        </mxCell>
        <mxCell id="_o2WhF-X_YRzCuWcC3-Q-28" value="" style="endArrow=none;html=1;rounded=0;fontSize=25;exitX=1;exitY=0.5;exitDx=0;exitDy=0;labelBackgroundColor=#114B5F;strokeColor=#028090;fontColor=#E4FDE1;" edge="1" parent="1" source="_o2WhF-X_YRzCuWcC3-Q-2" target="_o2WhF-X_YRzCuWcC3-Q-27">
          <mxGeometry width="50" height="50" relative="1" as="geometry">
            <mxPoint x="225" y="165" as="sourcePoint" />
            <mxPoint x="655" y="280" as="targetPoint" />
            <Array as="points" />
          </mxGeometry>
        </mxCell>
      </root>
    </mxGraphModel>
  </diagram>
</mxfile>
